<?xml version="1.0" standalone="no"?>
<!DOCTYPE svg PUBLIC "-//W3C//DTD SVG 20010904//EN"
 "http://www.w3.org/TR/2001/REC-SVG-20010904/DTD/svg10.dtd">
<svg version="1.0" xmlns="http://www.w3.org/2000/svg"
 width="192.000000pt" height="192.000000pt" viewBox="0 0 192.000000 192.000000"
 preserveAspectRatio="xMidYMid meet">
<metadata>
Created by potrace 1.14, written by Peter Selinger 2001-2017
</metadata>
<g transform="translate(0.000000,192.000000) scale(0.100000,-0.100000)"
fill="#000000" stroke="none">
<path d="M875 1900 c-48 -22 -59 -24 -49 -7 6 9 5 9 -7 0 -8 -6 -27 -10 -42
-9 -15 2 -30 0 -32 -4 -2 -4 -20 -6 -40 -4 -25 2 -33 -1 -28 -9 5 -9 3 -9 -8
0 -11 9 -19 7 -36 -7 -12 -9 -21 -19 -20 -21 1 -2 0 -3 -2 -2 -2 2 -10 -2 -18
-8 -7 -6 -13 -8 -13 -4 0 5 -9 -2 -20 -15 -11 -13 -20 -20 -20 -15 0 4 -6 2
-13 -4 -8 -6 -17 -8 -20 -4 -4 3 -7 1 -7 -6 0 -7 -4 -9 -10 -6 -5 3 -10 2 -10
-4 0 -5 -9 -8 -20 -6 -12 2 -23 -2 -27 -10 -3 -8 -9 -12 -14 -9 -5 3 -18 -4
-29 -14 -18 -17 -19 -20 -6 -25 9 -4 23 -4 31 -1 8 4 15 2 15 -3 0 -10 63 -9
79 2 6 3 11 1 11 -6 0 -9 3 -9 14 0 10 8 16 9 21 1 4 -7 12 -7 26 0 13 8 19 7
19 0 0 -7 5 -8 13 -3 16 10 28 11 53 2 11 -4 27 -3 34 1 8 5 22 4 32 -1 10 -5
18 -6 18 -1 0 10 84 7 102 -4 6 -4 8 -3 4 4 -4 7 1 10 14 9 11 -1 20 -5 20
-10 0 -4 6 -5 12 -1 17 11 88 12 94 2 3 -4 13 -4 22 0 9 5 44 8 77 7 33 -2 66
3 74 9 9 7 12 7 9 1 -5 -8 50 -11 173 -10 98 0 179 4 179 8 0 4 0 12 0 18 0 6
-7 9 -15 6 -8 -4 -17 -1 -21 5 -5 7 -2 8 6 3 8 -5 11 -4 6 3 -4 6 -13 9 -21 5
-8 -3 -15 -1 -15 4 0 5 -7 10 -15 11 -8 1 -22 3 -30 4 -8 1 -15 5 -15 9 0 6
-51 34 -75 40 -17 5 -33 24 -27 33 3 5 0 6 -6 2 -6 -3 -13 -2 -17 4 -4 6 -10
8 -15 5 -5 -3 -11 -1 -14 3 -3 5 -18 8 -33 7 -15 -1 -36 2 -47 8 -14 7 -16 6
-11 -4 6 -8 4 -10 -5 -4 -7 4 -29 9 -47 10 -19 0 -39 8 -44 16 -7 11 -9 11 -9
0 0 -11 -3 -11 -15 -1 -8 7 -15 9 -15 5 0 -4 -8 -1 -17 6 -15 12 -16 12 -8 -1
6 -12 5 -13 -6 -2 -7 6 -25 12 -39 12 -14 0 -32 -6 -39 -12 -11 -10 -13 -10
-7 0 9 15 10 15 -39 -8z"/>
<path d="M190 1522 c0 -7 -4 -11 -8 -8 -4 2 -9 -5 -9 -16 -1 -12 -7 -24 -13
-28 -6 -4 -10 -11 -9 -16 3 -11 -22 -67 -34 -75 -5 -3 -9 -10 -9 -15 0 -5 -4
-8 -8 -7 -5 2 -7 -6 -5 -17 2 -11 -1 -20 -6 -20 -6 0 -8 -4 -5 -9 4 -5 0 -12
-6 -15 -7 -3 2 -5 20 -3 18 2 32 -1 32 -7 0 -6 5 -4 10 4 6 9 10 10 10 3 0 -8
9 -9 30 -3 21 6 30 5 30 -3 0 -7 4 -6 10 3 6 9 10 10 10 3 0 -8 9 -9 30 -3 21
6 30 5 30 -3 0 -7 4 -6 10 3 6 9 10 10 10 3 0 -8 9 -9 30 -3 21 6 30 5 30 -3
0 -7 4 -6 10 3 6 9 10 10 10 3 0 -8 9 -9 30 -3 21 6 30 5 30 -3 0 -7 4 -6 10
3 6 9 10 10 10 3 0 -8 9 -9 30 -3 21 6 30 5 30 -3 0 -7 4 -6 10 3 6 9 10 10
10 3 0 -8 9 -9 30 -3 21 6 30 5 30 -3 0 -7 4 -6 10 3 9 13 10 13 10 0 0 -13 1
-13 10 0 8 12 10 12 10 1 0 -11 3 -11 15 -1 12 10 15 10 15 -1 0 -9 3 -10 8
-4 8 12 43 12 61 1 6 -4 11 -1 11 6 0 10 2 10 9 -1 6 -10 10 -10 16 -1 6 9 10
9 16 -1 5 -8 9 -9 9 -3 0 12 41 11 59 -1 6 -3 11 0 11 7 0 10 2 10 9 -1 6 -9
10 -10 16 -2 5 9 10 9 20 1 9 -8 14 -6 19 6 6 15 8 15 26 -1 11 -10 20 -14 20
-9 0 10 152 10 168 0 6 -3 13 0 16 6 5 10 7 10 12 0 5 -10 11 -9 27 5 11 10
17 13 13 6 -5 -9 9 -12 52 -11 32 1 64 -2 72 -7 8 -5 11 -4 7 2 -8 12 94 10
114 -2 7 -5 10 -4 6 2 -7 11 95 9 114 -3 7 -4 10 -3 6 2 -5 10 204 11 219 1 5
-3 15 1 22 9 7 8 9 14 3 14 -5 0 -16 18 -25 40 -9 22 -19 40 -24 40 -4 0 -9
12 -10 26 -1 15 -10 33 -20 41 -10 9 -11 11 -2 7 11 -6 10 -2 -3 13 -9 11 -14
23 -10 26 3 4 1 7 -6 7 -7 0 -9 5 -5 13 6 9 4 9 -8 -1 -12 -10 -18 -10 -23 -1
-6 8 -10 7 -16 -2 -8 -12 -11 -11 -19 1 -7 11 -10 11 -10 2 0 -7 -4 -11 -9 -7
-5 3 -13 1 -16 -5 -5 -8 -11 -7 -21 1 -11 9 -14 8 -14 -5 0 -9 -4 -17 -10 -17
-5 -1 -15 -2 -20 -3 -6 0 -15 -7 -19 -15 -7 -10 -10 -10 -16 -1 -6 9 -9 9 -15
-1 -5 -7 -19 -14 -32 -16 -18 -2 -20 -1 -8 7 13 8 12 10 -2 10 -10 0 -17 3
-17 8 3 20 -3 32 -17 32 -9 0 -12 5 -8 12 5 7 3 8 -7 2 -21 -13 -39 -14 -39
-1 0 8 -3 8 -8 2 -10 -14 -52 -15 -52 -1 0 6 -4 5 -9 -3 -6 -9 -11 -10 -15 -2
-5 8 -13 8 -27 1 -14 -8 -19 -7 -19 2 0 10 -2 10 -9 -1 -5 -7 -11 -9 -14 -4
-6 10 -48 10 -64 0 -7 -4 -15 -3 -18 3 -5 8 -11 8 -20 0 -15 -12 -36 -10 -47
5 -5 6 -8 5 -8 -4 0 -10 -3 -11 -14 -2 -10 8 -16 9 -21 1 -3 -6 -12 -7 -18 -3
-16 10 -38 10 -59 1 -10 -5 -20 -4 -23 2 -5 8 -11 8 -20 0 -10 -8 -15 -8 -20
0 -5 8 -11 8 -21 -1 -11 -9 -14 -8 -14 2 0 12 -2 12 -9 1 -9 -15 -20 -15 -38
0 -13 10 -17 4 -13 -17 1 -5 -8 -1 -19 9 -19 18 -26 15 -22 -8 1 -5 -5 -3 -14
4 -19 16 -53 21 -61 8 -3 -4 -13 -5 -22 0 -21 9 -43 9 -59 -1 -6 -4 -15 -3
-18 3 -5 8 -11 7 -22 -1 -12 -10 -16 -10 -24 2 -7 12 -9 12 -9 0 0 -12 -3 -12
-12 -3 -8 8 -15 9 -25 1 -10 -9 -13 -8 -13 1 0 10 -3 10 -15 0 -12 -10 -15
-10 -15 1 0 12 -2 12 -9 0 -5 -7 -11 -9 -14 -4 -6 10 -48 10 -64 0 -7 -4 -15
-3 -18 3 -5 8 -11 8 -20 0 -10 -8 -15 -8 -20 0 -5 8 -10 8 -20 0 -9 -8 -15 -8
-20 0 -3 6 -12 7 -18 3 -18 -11 -51 -10 -59 2 -5 6 -8 5 -8 -3z"/>
<path d="M177 1113 c-4 -3 -37 -6 -73 -6 -40 0 -67 -4 -69 -11 -2 -6 -6 -20
-11 -31 -4 -11 -6 -26 -5 -33 1 -8 -3 -20 -9 -27 -11 -14 -12 -70 -1 -90 3 -5
6 -19 6 -30 0 -11 4 -25 8 -31 4 -7 9 -31 12 -54 3 -24 8 -46 10 -51 3 -4 1
-10 -5 -14 -7 -4 -7 -12 0 -26 6 -10 7 -19 3 -19 -4 0 -1 -5 7 -10 12 -8 12
-10 1 -10 -11 0 -9 -5 5 -22 12 -13 13 -18 4 -13 -13 8 -13 6 -1 -8 7 -9 17
-14 22 -11 5 3 8 0 7 -8 -2 -7 2 -12 9 -11 8 2 10 -4 6 -14 -5 -12 -3 -14 8
-7 19 11 51 16 45 6 -2 -4 4 -8 15 -8 10 0 19 3 19 7 0 9 63 5 80 -6 8 -5 11
-4 7 2 -4 6 0 13 8 17 8 3 17 1 20 -4 4 -6 15 -6 28 2 20 10 21 10 8 -5 -13
-16 -2 -25 13 -10 10 10 48 15 42 5 -2 -4 4 -8 15 -8 10 0 19 3 19 7 0 9 63 5
80 -6 8 -5 11 -4 7 2 -4 6 0 13 8 17 8 3 17 1 20 -4 4 -6 15 -6 28 2 20 10 21
10 8 -5 -13 -16 -2 -25 13 -10 10 10 48 15 42 5 -2 -4 4 -8 15 -8 10 0 19 3
19 7 0 9 63 5 80 -6 8 -5 11 -4 7 2 -4 6 0 13 8 17 8 3 17 1 20 -4 4 -6 15 -6
28 2 20 10 21 10 8 -5 -13 -16 -2 -25 13 -10 10 10 48 15 42 5 -2 -4 4 -8 15
-8 10 0 19 3 19 7 0 9 63 5 80 -6 8 -5 11 -4 7 2 -4 6 0 13 8 17 8 3 17 1 20
-4 4 -6 15 -6 28 2 20 10 21 10 8 -5 -13 -16 -2 -25 13 -10 10 10 48 15 42 5
-2 -4 4 -8 15 -8 10 0 19 3 19 7 0 9 63 5 80 -6 8 -5 11 -4 7 2 -4 6 0 13 8
17 8 3 17 1 21 -5 3 -6 12 -8 19 -5 7 2 18 -1 25 -7 9 -9 11 -9 7 -1 -8 14 20
27 28 14 4 -6 15 -6 28 2 20 10 21 10 8 -5 -13 -16 -2 -25 13 -10 10 10 48 15
42 5 -2 -4 4 -8 15 -8 10 0 19 3 19 7 0 9 63 5 80 -6 8 -5 11 -4 7 2 -4 6 0
13 8 17 8 3 17 1 20 -4 4 -6 15 -6 28 2 20 10 21 10 8 -5 -13 -16 -2 -25 13
-10 10 10 48 15 42 5 -2 -4 4 -8 15 -8 10 0 19 3 19 7 0 9 63 5 80 -6 9 -5 11
-4 6 3 -7 11 5 16 30 13 7 -1 14 7 18 16 3 10 9 25 14 33 24 41 28 57 22 75
-4 11 -4 30 1 41 4 12 5 24 2 28 -3 3 -2 13 3 23 9 21 11 30 13 61 0 13 5 21
9 18 5 -3 9 1 9 9 0 8 -5 11 -11 8 -6 -3 -5 0 2 8 16 17 16 71 0 88 -11 11
-10 12 2 6 13 -8 13 -6 2 8 -8 9 -11 20 -9 24 3 5 -1 22 -8 40 -12 29 -16 31
-64 30 -28 0 -54 3 -58 6 -3 4 -12 2 -20 -4 -10 -9 -13 -8 -13 2 0 11 -3 11
-11 -1 -8 -11 -12 -12 -16 -2 -2 6 -9 9 -15 6 -16 -10 -268 -10 -268 0 0 5 -7
3 -15 -4 -12 -10 -15 -10 -15 1 0 11 -3 11 -11 -1 -8 -12 -12 -12 -16 -2 -4
10 -8 10 -19 1 -11 -9 -14 -8 -14 2 0 11 -3 11 -11 -1 -8 -12 -12 -12 -16 -2
-4 10 -8 10 -19 1 -11 -9 -14 -8 -14 2 0 11 -3 11 -11 -1 -8 -12 -12 -12 -16
-2 -4 10 -8 10 -19 1 -11 -9 -14 -8 -14 2 0 11 -3 11 -11 -1 -8 -11 -12 -12
-16 -2 -2 6 -9 9 -14 6 -18 -11 -239 -10 -239 1 0 6 -5 3 -10 -5 -8 -12 -11
-13 -19 -1 -5 7 -11 9 -14 4 -6 -9 -75 -9 -84 1 -4 3 -12 1 -20 -5 -10 -9 -13
-8 -13 2 0 11 -3 11 -11 -1 -8 -11 -12 -12 -16 -2 -2 6 -10 9 -15 6 -17 -10
-108 -10 -108 0 0 5 -7 3 -15 -4 -12 -10 -15 -10 -15 1 0 11 -3 11 -11 -1 -8
-12 -12 -12 -16 -2 -4 10 -8 10 -19 1 -11 -9 -14 -8 -14 2 0 11 -3 11 -11 -1
-8 -12 -12 -12 -16 -2 -4 10 -8 10 -19 1 -11 -9 -14 -8 -14 2 0 11 -3 11 -11
-1 -8 -12 -12 -12 -16 -2 -4 10 -8 10 -19 1 -11 -9 -14 -8 -14 2 0 11 -3 11
-11 -1 -8 -11 -12 -12 -16 -2 -2 6 -10 9 -16 5 -16 -10 -67 -9 -67 1 0 5 -7 3
-15 -4 -12 -10 -15 -10 -15 1 0 11 -3 11 -11 -1 -8 -12 -12 -12 -16 -2 -4 10
-8 10 -19 1 -11 -9 -14 -8 -14 2 0 11 -2 11 -10 -1 -8 -12 -12 -12 -18 -2 -5
7 -11 9 -15 5z"/>
<path d="M205 390 c-10 -4 -6 -12 15 -30 17 -14 45 -39 64 -57 19 -17 37 -29
42 -25 4 4 4 2 1 -4 -3 -6 2 -20 13 -31 10 -12 16 -24 13 -27 -4 -3 1 -6 10
-6 8 0 18 -9 22 -19 4 -13 12 -18 22 -14 12 5 14 3 8 -7 -6 -10 -4 -12 7 -7 9
3 21 0 27 -6 6 -6 11 -8 11 -3 0 4 7 0 16 -9 12 -12 19 -13 24 -5 5 8 9 7 14
-5 3 -9 10 -14 15 -11 5 3 12 -1 15 -10 3 -8 10 -12 16 -9 5 3 10 1 10 -4 0
-6 5 -11 11 -11 6 0 17 -7 26 -15 8 -8 19 -13 24 -10 5 4 9 2 9 -3 0 -16 44
-29 78 -22 17 4 32 4 32 0 0 -4 16 -7 35 -8 19 -1 45 -6 56 -13 12 -6 19 -7
15 -1 -4 6 2 8 14 5 11 -3 17 -10 13 -17 -4 -6 2 -4 12 4 11 9 16 10 11 3 -12
-20 108 -17 128 3 9 8 16 11 16 6 0 -13 43 -7 48 7 3 9 7 9 18 0 8 -6 14 -7
14 -2 0 5 17 10 38 11 20 1 54 3 74 4 21 2 40 8 43 15 2 7 11 13 19 13 8 0 16
4 18 9 2 5 10 11 18 13 8 2 23 11 34 20 11 10 26 18 33 18 7 0 13 6 13 13 0 8
4 7 10 -3 7 -11 10 -11 10 -2 0 7 4 10 10 7 5 -3 10 -1 10 5 0 6 5 8 10 5 6
-3 10 -1 10 4 0 6 3 11 8 10 15 -2 52 14 52 23 0 5 14 22 31 38 20 18 28 33
24 41 -5 7 -4 10 2 6 6 -4 14 0 17 9 3 9 11 12 18 8 7 -5 9 -2 5 9 -4 11 -1
15 14 12 14 -3 19 2 19 17 0 12 3 19 6 16 5 -6 54 35 54 45 0 4 -12 2 -26 -3
-14 -6 -23 -7 -21 -2 6 8 -1455 10 -1478 2z"/>
</g>
</svg>
